/* XPM */
static char *count_81701439584[] = {
/* columns rows colors chars-per-pixel */
"40 100 3 1 ",
"  c black",
". c #6F6F6F",
"X c #CA8611",
/* pixels */
"                                        ",
"                                        ",
"                                        ",
"                                        ",
"                                        ",
"XXXXXXXXXXXXXXXXXXXXXXXXXXXXXXXXXXXXXXXX",
"XXXXXXXXXXXXXXXXXXXXXXXXXXXXXXXXXXXXXXXX",
"XXXXXXXXXXXXXXXXXXXXXXXXXXXXXXXXXXXXXXXX",
"XXXXXXXXXXXXXXXXXXXXXXXXXXXXXXXXXXXXXXXX",
"XXXXXXXXXXXXXXXXXXXXXXXXXXXXXXXXXXXXXXXX",
"XXXXXXXXXXXXXXXXXXXXXXXXXXXXXXXXXXXXXXXX",
"                                        ",
"                                        ",
"                                        ",
"                                        ",
"                                        ",
"........................................",
"........................................",
"........................................",
"........................................",
"........................................",
"........................................",
"........................................",
"........................................",
"........................................",
"........................................",
"........................................",
"........................................",
"........................................",
"........................................",
"........................................",
"........................................",
"........................................",
"........................................",
"........................................",
"........................................",
"........................................",
"........................................",
"........................................",
"........................................",
"........................................",
"........................................",
"........................................",
"........................................",
"........................................",
"..............          ................",
"..............          ................",
"..............          ................",
"..............          ................",
"..............          ................",
".........     ..........     ...........",
".........     ..........     ...........",
".........     ..........     ...........",
".........     ..........     ...........",
".........     ..........     ...........",
"..............          ................",
"..............          ................",
"..............          ................",
"..............          ................",
"..............          ................",
".........     ..........     ...........",
".........     ..........     ...........",
".........     ..........     ...........",
".........     ..........     ...........",
".........     ..........     ...........",
"..............          ................",
"..............          ................",
"..............          ................",
"..............          ................",
"..............          ................",
"........................................",
"........................................",
"........................................",
"........................................",
"........................................",
"........................................",
"........................................",
"........................................",
"........................................",
"........................................",
"........................................",
"........................................",
"........................................",
"........................................",
"........................................",
"........................................",
"........................................",
"........................................",
"........................................",
"........................................",
"........................................",
"........................................",
"........................................",
"........................................",
"........................................",
"........................................",
"........................................",
"........................................",
"........................................",
"........................................"
};
