/* XPM */
static char *d331f9d473ad4012bbac64125b06f0ff57ZyPun4j5Kl8Hg2[] = {
/* columns rows colors chars-per-pixel */
"25 25 14 1 ",
"  c black",
". c #353540",
"X c #2F5753",
"o c #3B7D4F",
"O c gray30",
"+ c #885D40",
"@ c #C79573",
"# c #2B408D",
"$ c #3366AC",
"% c #5098D0",
"& c #E3B08D",
"* c #FFEE83",
"= c #D0C8E8",
"- c white",
/* pixels */
"ooooooooooooooooooooooooo",
"ooXoooooooo#o#ooooooooooo",
"ooooooXooo#####oooooXoooo",
"ooooooo#o##%#%##o#ooooooo",
"oooooo#%##%%%%%##%#oooooo",
"ooooo#%%%#%%%%%#%%%#ooooo",
"oooXo#$%%%#%%%#%%%$#ooXoo",
"ooooo#$$$$#%%%#$$$$#-oooo",
"oXooo#$&&$$$$$$$&&$#-oooo",
"ooooo  &&&&&&&&&&&  *---o",
"oooo & &&&OO&OO&&& & ---o",
"oooo & &&&- & -&&& & ---o",
"o---* &+&&&&@&&&&+& -XXXo",
"o---** ++&&&&&&&++ --XXXo",
"o---*** +&&+++&&+ XXXXXXo",
"oXXX-- ..+++++++.. XXoooo",
"oXXX- ............. Xoooo",
"oXXX &.............& oooo",
"oooo &&...........&& oooo",
"ooooX   =.......=   ooooo",
"ooooooo ========= XoooXoo",
"oXooooo ==== ==== Xoooooo",
"ooooooo ==  X  == Xoooooo",
"oooooXoo  oooXX  oooXoooo",
"oooooooooooooXXXooooooooo"
};
