/* XPM */
static char *_a30072a613a480cc710f0a09e3dabb135y7eShOOLuXsyu2[] = {
/* columns rows colors chars-per-pixel */
"25 25 12 1 ",
"  c black",
". c #353540",
"X c #2F5753",
"o c #3B7D4F",
"O c #885D40",
"+ c #2B408D",
"@ c #3366AC",
"# c #5098D0",
"$ c #E3B08D",
"% c #FFEE83",
"& c #D0C8E8",
"* c white",
/* pixels */
"ooooooooooooooooooooooooo",
"ooXooooooo+++++oooooooooo",
"ooooooX+++#####+ooooXoooo",
"oooooo+###+#####+oooooooo",
"ooooo+#####++####+ooooooo",
"ooooo+#######+##@+ooooooo",
"oooX  +#######+@@@+oooXoo",
"oooo ##+#@@@@@+++@+**oooo",
"oXoo ###+@++++$$$+***oooo",
"ooooo #@@+$$$$$*  %%%***o",
"oooo** @@+O$$$$*  %%%***o",
"oooo*** ++O$$$$$$ %%%***o",
"o***%%% +OOO$$$OO ***XXXo",
"o***%%%* .OOOOOO X***XXXo",
"o***%%%* ...... XXXXXXXXo",
"oXXX***X ....... oXXXoooo",
"oXXX***X .  .... oXXXoooo",
"oXXXXXXX . . ... **oooooo",
"ooooXXXo .. .$.. **oooooo",
"ooooXXXo &&&$$&& **oooooo",
"oooooooo &&&&&&& XXoooXoo",
"oXooooooo &&&&& XXXoooooo",
"oooooooooo &&& XXXXoooooo",
"oooooXooooo   XXooooXoooo",
"oooooooooooooXXXooooooooo"
};
