/* XPM */
static char *d0d2c3925ae44e6fe13350ab6e092e54zYIxdeLVRcu1OO87[] = {
/* columns rows colors chars-per-pixel */
"25 25 11 1 ",
"  c black",
". c #353540",
"X c #2F5753",
"o c #3B7D4F",
"O c #2B408D",
"+ c #3366AC",
"@ c #5098D0",
"# c #E3B08D",
"$ c #FFEE83",
"% c #D0C8E8",
"& c white",
/* pixels */
"ooooooooooooooooooooooooo",
"ooXooooooooOoOooooooooooo",
"ooooooXoooOOOOOoooooXoooo",
"oooooooOoOO@O@OOoOooooooo",
"ooooooO@OO@@@@@OO@Ooooooo",
"oooooO@@O@@@@@@@O@@Oooooo",
"oooXoO@OO@@@@@@@OO@OooXoo",
"oooooO@O@@@@@@@@@O@O&oooo",
"oXoooO@O@@@@@@@@@O@O&oooo",
"ooooo +++@@@@@@@+++ $&&&o",
"oooo #++++++@++++++# &&&o",
"oooo #O+++++++++++O# &&&o",
"o&&&$ #O+++++++++O# &XXXo",
"o&&&$$ OOOO+++OOOO &&XXXo",
"o&&&$$$ .OOOOOOO. XXXXXXo",
"oXXX&& ........... XXoooo",
"oXXX& ............. Xoooo",
"oXXX #.............# oooo",
"oooo ##...........## oooo",
"ooooX   %.......%   ooooo",
"ooooooo %%%%%%%%% XoooXoo",
"oXooooo %%%% %%%% Xoooooo",
"ooooooo %%  X  %% Xoooooo",
"oooooXoo  oooXX  oooXoooo",
"oooooooooooooXXXooooooooo"
};
