/* XPM */
static char *ca05a9b3651f40a1cfdfa03d2de55708Lhl3z51Q1agPDtzr[] = {
/* columns rows colors chars-per-pixel */
"25 25 12 1 ",
"  c black",
". c #353540",
"X c #2F5753",
"o c #3B7D4F",
"O c #885D40",
"+ c #2B408D",
"@ c #3366AC",
"# c #5098D0",
"$ c #E3B08D",
"% c #FFEE83",
"& c #D0C8E8",
"* c white",
/* pixels */
"ooooooooooooooooooooooooo",
"ooXooooooo+++++oooooooooo",
"ooooooXoo+#####+++ooXoooo",
"oooooooo+#####+###+oooooo",
"ooooooo+####++#####+ooooo",
"ooooooo+@##+#######+ooooo",
"oooXoo+@@@+#######+# oXoo",
"oooooo+@+++@@@@@#+## oooo",
"oXooooo+$$$++++@+### oooo",
"ooooooo  *$$$$$+@@# %***o",
"oooo***  *$$$$O+@@ %%***o",
"oooo*** $$$$$$O++ %%%***o",
"o***%%% OO$$$OOO+ ***XXXo",
"o***%%%* OOOOOO. X***XXXo",
"o***%%%** ...... XXXXXXXo",
"oXXX***X ....... oXXXoooo",
"oXXX***X ....  . oXXXoooo",
"oXXXXXXX ... . . **oooooo",
"ooooXXXo ..$. .. **oooooo",
"ooooXXXo &&$$&&& **oooooo",
"oooooooo &&&&&&& XXoooXoo",
"oXooooooo &&&&& XXXoooooo",
"oooooooooo &&& XXXXoooooo",
"oooooXooooo   XXooooXoooo",
"oooooooooooooXXXooooooooo"
};
