/* XPM */
static char *player_test1701343606[] = {
/* columns rows colors chars-per-pixel */
"25 25 13 1 ",
"  c black",
". c #252B35",
"X c #2F5753",
"o c #3B7D4F",
"O c #38526F",
"+ c gray30",
"@ c #B83848",
"# c #885D40",
"$ c #D86878",
"% c #C79573",
"& c #E3B08D",
"* c #FFEE83",
"= c white",
/* pixels */
"ooooooooooooooooooooooooo",
"ooXoooooooooooooooooooooo",
"ooooooXoo       ooooXoooo",
"ooooooo  @@@@@@@  ooooooo",
"oooooo @@$$$$$$$@@ oooooo",
"ooooo $$$$$$$$$$$$$ ooooo",
"oooXo $$$$$$$$$$$$$ ooXoo",
"ooooo @@@$$$$$$$@@@ =oooo",
"oXoooo @@@$$$$$@@@ ==oooo",
"ooooo  &@@@@@@@@@&  *===o",
"oooo & &&&=+&+=&&& & ===o",
"oooo & &&&= & =&&& & ===o",
"o===*  #&&&&%&&&&#  =XXXo",
"o===** ##&&&&&&&## ==XXXo",
"o===*** #&&###&&# XXXXXXo",
"oXXX== OO#######OO XXoooo",
"oXXX= OOOOOOOOOOOOO Xoooo",
"oXXX &OOOOOOOOOOOOO& oooo",
"oooo &&OOOOOOOOOOO&& oooo",
"ooooX   .OOOOOOO.   ooooo",
"ooooooo ......... XoooXoo",
"oXooooo .... .... Xoooooo",
"ooooooo ..  X  .. Xoooooo",
"oooooXoo  oooXX  oooXoooo",
"oooooooooooooXXXooooooooo"
};
