/* XPM */
static char *player_right1701351117[] = {
/* columns rows colors chars-per-pixel */
"25 25 11 1 ",
"  c black",
". c #252B35",
"X c #2F5753",
"o c #3B7D4F",
"O c #38526F",
"+ c #B83848",
"@ c #885D40",
"# c #D86878",
"$ c #E3B08D",
"% c #FFEE83",
"& c white",
/* pixels */
"ooooooooooooooooooooooooo",
"ooXoooooooooooooooooooooo",
"ooooooXo      oXooooXoooo",
"ooooooo ######   oooooooo",
"oooooo ##########  oooooo",
"oooooo ###########+ ooooo",
"oooXo ###########++ ooXoo",
"ooooo #########++++ &oooo",
"oXooo ++++++++++++ &&oooo",
"ooooo +++$$$$$$&  %%%&&&o",
"oooo&& +@$$$$$$&  %%%&&&o",
"oooo&&& @@$$$$$$$ %%%&&&o",
"o&&&%%% @@@$$$$@@ &&&XXXo",
"o&&&%%%& O@@@@@@ X&&&XXXo",
"o&&&%%%& OOOOOO XXXXXXXXo",
"oXXX&&&X OOOOOOO oXXXoooo",
"oXXX&&&X O  OOOO oXXXoooo",
"oXXXXXXX O O OOO &&oooooo",
"ooooXXXo OO O$OO &&oooooo",
"ooooXXXo ...$$.. &&oooooo",
"oooooooo ....... XXoooXoo",
"oXooooooo ..... XXXoooooo",
"oooooooooo ... XXXXoooooo",
"oooooXooooo   XXooooXoooo",
"oooooooooooooXXXooooooooo"
};
