/* XPM */
static char *player_left1701351117[] = {
/* columns rows colors chars-per-pixel */
"25 25 12 1 ",
"  c black",
". c #252B35",
"X c #2F5753",
"o c #3B7D4F",
"O c #38526F",
"+ c #B83848",
"@ c #885D40",
"# c #D86878",
"$ c #E3B08D",
"% c #FFEE83",
"& c #F5FFE8",
"* c white",
/* pixels */
"ooooooooooooooooooooooooo",
"ooXoooooooooooooooooooooo",
"ooooooXooo&      oooXoooo",
"oooooooo   ###### ooooooo",
"oooooo  ########## oooooo",
"ooooo +########### oooooo",
"oooXo ++##########+ ooXoo",
"ooooo ++++#######++ *oooo",
"oXoooo ++++++++++++ *oooo",
"ooooooo  *$$$$$$+++ %***o",
"oooo***  *$$$$$$@+ %%***o",
"oooo*** $$$$$$$@@ %%%***o",
"o***%%% @@$$$$@@@ ***XXXo",
"o***%%%* @@@@@@O X***XXXo",
"o***%%%** OOOOOO XXXXXXXo",
"oXXX***X OOOOOOO oXXXoooo",
"oXXX***X OOOO  O oXXXoooo",
"oXXXXXXX OOO O O **oooooo",
"ooooXXXo OO$O OO **oooooo",
"ooooXXXo ..$$... **oooooo",
"oooooooo ....... XXoooXoo",
"oXooooooo ..... XXXoooooo",
"oooooooooo ... XXXXoooooo",
"oooooXooooo   XXooooXoooo",
"oooooooooooooXXXooooooooo"
};
