/* XPM */
static char *f2197d44ce854219b5dd2a605f3e8ebdpv6OR1q79r3NUg5g[] = {
/* columns rows colors chars-per-pixel */
"25 25 3 1 ",
"  c #4C6885",
". c #4FA4B8",
"X c #92E8C0",
/* pixels */
"                         ",
"                         ",
"                         ",
"      XXX         XXX    ",
"   XXX...XXX   XXX...XXX ",
"XXX...   ...XXX...   ...X",
"...         ...         .",
"                         ",
"                         ",
"                         ",
"                         ",
"                         ",
"  XXX         XXX        ",
"XX...XXX   XXX...XXX   XX",
"..   ...XXX...   ...XXX..",
"        ...         ...  ",
"                         ",
"                         ",
"                         ",
"                         ",
"                         ",
"X         XXX         XXX",
".XXX   XXX...XXX   XXX...",
" ...XXX...   ...XXX...   ",
"    ...         ...      "
};
